<?xml version="1.0" standalone="no"?>
<!DOCTYPE svg PUBLIC "-//W3C//DTD SVG 20010904//EN"
 "http://www.w3.org/TR/2001/REC-SVG-20010904/DTD/svg10.dtd">
<svg version="1.0" xmlns="http://www.w3.org/2000/svg"
 width="1405.000000pt" height="493.000000pt" viewBox="0 0 1405.000000 493.000000"
 preserveAspectRatio="xMidYMid meet">

<g transform="translate(0.000000,493.000000) scale(0.100000,-0.100000)"
fill="#000000" stroke="none">
<path d="M6998 4904 c-25 -29 -81 -154 -136 -304 -136 -371 -420 -1208 -636
-1878 -65 -200 -67 -205 -132 -285 -83 -104 -195 -219 -260 -268 -64 -49 -150
-79 -224 -79 -47 0 -64 5 -97 29 -74 53 -96 156 -117 534 -9 168 -18 252 -27
263 -22 27 -45 34 -81 23 -81 -22 -171 -135 -333 -419 -42 -74 -83 -141 -90
-148 -7 -8 1 50 22 150 63 300 94 500 81 516 -22 26 -117 -1 -143 -41 -8 -13
-24 -86 -35 -163 -27 -186 -29 -199 -46 -272 -16 -72 -27 -86 -209 -267 -131
-131 -200 -175 -274 -175 -82 0 -111 72 -111 271 0 111 12 285 24 344 27 131
41 162 103 226 37 39 44 52 41 79 -2 22 -12 40 -31 54 -25 18 -42 21 -135 21
l-107 0 -95 -47 c-176 -87 -317 -221 -533 -506 -128 -167 -214 -262 -315 -343
-105 -84 -199 -129 -273 -129 -54 0 -60 3 -110 48 -63 56 -96 123 -139 282
-37 137 -62 188 -95 196 -107 27 -350 -110 -663 -374 -68 -57 -129 -101 -135
-99 -18 6 -26 67 -16 123 13 70 62 220 97 296 27 58 113 169 188 243 60 59
150 143 204 190 30 26 95 86 144 134 49 47 122 115 161 151 100 90 246 256
305 346 102 156 135 259 127 399 -9 165 -60 253 -161 276 -131 29 -294 -56
-443 -230 -54 -64 -223 -302 -223 -315 0 -3 -26 -49 -57 -103 -129 -222 -335
-701 -422 -983 -23 -74 -49 -151 -59 -170 -9 -19 -82 -101 -162 -181 -196
-197 -266 -233 -477 -246 -215 -13 -319 54 -379 246 -24 74 -28 232 -10 343
16 95 70 284 86 302 5 5 90 13 189 17 224 11 510 43 547 61 15 7 29 19 32 26
3 9 -74 12 -362 12 -242 0 -366 3 -366 10 0 42 325 606 399 693 14 17 14 20
-3 33 -46 33 -159 25 -230 -17 -66 -39 -105 -110 -251 -454 -53 -126 -102
-236 -109 -242 -9 -10 -50 -10 -189 -1 -120 7 -181 8 -188 1 -15 -15 0 -62 25
-79 35 -22 174 -54 238 -54 32 0 58 -2 58 -4 0 -2 -7 -23 -16 -47 -57 -161
-79 -401 -50 -539 18 -87 72 -201 116 -247 169 -179 458 -215 708 -89 106 53
263 187 325 275 9 14 19 22 22 20 3 -3 -4 -48 -15 -100 -28 -135 -27 -199 6
-239 33 -39 93 -70 136 -70 41 0 39 -1 122 95 103 119 224 241 286 289 82 64
189 116 237 116 37 0 46 -5 85 -49 23 -26 70 -97 103 -156 34 -61 82 -131 110
-160 153 -158 386 -114 632 118 l51 48 -5 -40 c-7 -53 13 -124 43 -152 35 -33
113 -50 180 -39 140 23 334 167 474 354 l45 59 11 -119 c13 -136 38 -208 89
-253 114 -100 378 18 565 252 24 31 46 54 48 52 7 -7 -29 -119 -60 -187 l-30
-67 19 -37 c25 -49 64 -78 91 -70 14 5 40 43 73 104 151 284 308 540 386 631
l30 35 7 -68 c27 -267 105 -510 191 -599 53 -54 106 -78 189 -84 57 -4 82 -1
128 17 88 33 173 94 281 202 53 53 97 94 97 90 0 -4 -14 -50 -30 -102 -17 -51
-30 -108 -30 -125 0 -63 58 -101 106 -70 14 9 69 82 123 163 176 264 203 302
274 378 38 41 71 73 74 71 2 -2 12 -62 23 -133 40 -267 126 -420 280 -499 166
-85 393 -77 599 20 157 75 378 255 478 389 40 54 56 106 33 106 -5 0 -67 -57
-137 -127 -140 -140 -239 -214 -366 -273 -155 -72 -270 -87 -391 -50 -84 26
-140 70 -193 148 -51 75 -83 178 -91 285 l-5 78 39 -8 c21 -4 66 -7 100 -6
195 4 448 143 519 286 49 99 24 235 -52 279 -48 29 -140 33 -230 12 -88 -21
-230 -89 -316 -152 -56 -42 -415 -335 -512 -419 -27 -24 -53 -43 -56 -43 -18
0 63 273 122 415 5 11 48 124 98 250 86 224 195 488 251 610 15 33 36 83 48
110 308 764 342 856 342 922 0 49 -48 86 -118 91 -46 3 -60 1 -74 -14z m-4215
-746 c74 -38 68 -185 -16 -353 -103 -208 -349 -501 -628 -750 -123 -110 -268
-225 -283 -225 -12 0 1 32 97 250 217 495 397 809 557 971 114 116 194 148
273 107z m4437 -1183 c33 -17 50 -62 42 -115 -7 -47 -81 -119 -163 -157 -78
-37 -192 -56 -260 -43 -49 9 -119 39 -119 51 0 15 163 159 228 202 110 73 207
95 272 62z m-3200 -47 c0 -36 -39 -226 -61 -302 -31 -104 -96 -244 -144 -311
-181 -254 -425 -272 -410 -30 4 79 25 139 88 255 68 124 202 263 327 337 94
55 132 71 173 72 22 1 27 -3 27 -21z"/>
<path d="M13927 4750 c-22 -4 -52 -20 -71 -39 -106 -103 -269 -471 -474 -1071
-169 -494 -233 -730 -235 -865 -2 -90 -2 -90 23 -90 23 0 26 6 47 109 40 199
150 508 301 846 117 261 325 680 423 850 39 69 81 144 91 168 18 40 18 45 4
68 -9 13 -23 24 -30 24 -8 0 -20 2 -28 4 -7 2 -30 0 -51 -4z"/>
<path d="M9834 3156 c-35 -16 -44 -32 -44 -84 0 -40 -33 -188 -53 -237 -32
-80 -134 -269 -194 -359 -120 -180 -233 -269 -341 -270 -46 -1 -57 3 -77 26
-12 14 -25 46 -29 70 -15 101 38 305 120 455 24 46 44 92 44 103 0 55 -97 44
-151 -17 -75 -86 -169 -372 -169 -516 0 -77 25 -152 67 -198 74 -82 137 -90
254 -31 196 99 348 273 456 525 19 45 41 96 48 112 l14 30 0 -50 c1 -79 -37
-646 -44 -653 -2 -2 -85 -26 -185 -53 -694 -188 -1090 -339 -1498 -570 -443
-251 -662 -537 -662 -861 1 -223 106 -397 295 -488 116 -55 168 -65 340 -64
291 1 554 80 836 249 228 138 389 277 544 470 241 300 395 669 475 1140 11 65
25 122 32 126 16 10 206 48 248 50 79 3 120 -1 120 -13 0 -23 53 -80 88 -95
69 -29 192 10 268 84 57 56 86 97 137 191 l44 82 38 -30 c67 -54 163 -71 274
-50 70 13 105 31 177 89 l61 50 5 -63 c9 -103 61 -196 130 -232 91 -48 252 31
426 208 40 40 85 92 101 116 l28 43 5 -118 c11 -252 94 -346 275 -312 129 24
280 142 440 344 48 61 63 87 63 112 0 18 -4 33 -9 33 -5 0 -32 -28 -59 -62
-63 -79 -202 -214 -262 -255 -131 -89 -213 -83 -255 19 -13 33 -17 71 -17 158
0 132 18 228 68 370 18 55 34 106 34 114 0 19 -24 27 -63 20 -72 -13 -83 -22
-128 -112 -164 -332 -341 -525 -500 -547 -42 -6 -50 -4 -78 22 -25 22 -34 40
-41 85 -17 110 17 242 109 427 67 132 61 171 -21 154 -57 -11 -110 -78 -156
-194 -22 -57 -46 -124 -53 -149 -24 -82 -123 -191 -216 -236 -47 -24 -71 -29
-128 -29 -73 0 -121 18 -191 71 l-32 23 43 105 c65 157 88 247 89 346 1 132
-39 186 -130 178 -43 -3 -49 0 -89 39 -37 37 -48 43 -86 43 -39 0 -48 -5 -88
-49 -134 -143 -299 -572 -318 -823 l-6 -88 -56 0 c-59 0 -233 -24 -265 -36
-17 -6 -18 -3 -12 52 3 32 8 91 11 129 39 532 52 796 41 838 -7 29 -51 57 -88
57 -13 -1 -37 -7 -54 -14z m983 -241 c57 -40 57 -215 1 -397 -11 -38 -25 -68
-30 -68 -16 0 -69 132 -84 210 -32 167 -5 270 71 270 11 0 30 -7 42 -15z
m-208 -313 c19 -63 104 -210 130 -226 29 -18 -11 -106 -92 -203 -96 -117 -182
-138 -217 -53 -31 75 35 353 123 518 10 17 21 32 26 32 5 0 18 -31 30 -68z
m-889 -641 c0 -42 -52 -320 -80 -430 -36 -144 -91 -313 -124 -383 -55 -120
-77 -164 -88 -183 -198 -313 -282 -412 -464 -550 -171 -130 -307 -195 -494
-236 -91 -21 -131 -24 -305 -23 -230 0 -307 13 -421 69 -91 45 -145 99 -191
193 -35 69 -38 84 -41 176 -6 150 24 248 118 386 77 113 253 266 427 371 122
74 424 218 628 300 174 69 573 207 665 229 25 5 115 30 200 54 85 25 158 45
163 45 4 1 7 -8 7 -18z"/>
<path d="M13115 2311 c-91 -33 -193 -108 -222 -165 -18 -35 -19 -86 -2 -119
66 -127 163 -71 263 151 31 68 56 130 56 138 0 19 -34 17 -95 -5z"/>
</g>
</svg>
